<?xml version="1.0" encoding="UTF-8"?>
<svg width="102px" height="21px" viewBox="0 0 102 21" version="1.1" xmlns="http://www.w3.org/2000/svg" xmlns:xlink="http://www.w3.org/1999/xlink">
    <!-- Generator: Sketch 62 (91390) - https://sketch.com -->
    <title>PacifcMap</title>
    <desc>Created with Sketch.</desc>
    <g id="Page-1" stroke="none" stroke-width="1" fill="none" fill-rule="evenodd">
        <path d="M2.48632812,16 L2.48632812,10.1552734 L5.50097656,10.1552734 C6.875,10.1279297 7.93969727,9.72631836 8.69506836,8.95043945 C9.45043945,8.17456055 9.828125,7.06884766 9.828125,5.63330078 C9.828125,4.25244141 9.43164062,3.14672852 8.63867188,2.31616211 C7.84570312,1.4855957 6.75537109,1.0703125 5.36767578,1.0703125 L5.36767578,1.0703125 L0.609863281,1.0703125 L0.609863281,16 L2.48632812,16 Z M5.36767578,8.54541016 L2.48632812,8.54541016 L2.48632812,2.69042969 L5.37792969,2.69042969 C6.17773438,2.69042969 6.80664062,2.96044922 7.26464844,3.50048828 C7.72265625,4.04052734 7.95166016,4.75830078 7.95166016,5.65380859 C7.95166016,6.58349609 7.72949219,7.29785156 7.28515625,7.796875 C6.84082031,8.29589844 6.20166016,8.54541016 5.36767578,8.54541016 L5.36767578,8.54541016 Z M16.3935547,16.2050781 C17.3916016,16.2050781 18.2119141,15.7333984 18.8544922,14.7900391 C18.9023438,15.3574219 18.980957,15.7607422 19.090332,16 L19.090332,16 L20.9770508,16 L20.9770508,15.8359375 C20.7514648,15.2070312 20.6352539,14.465332 20.628418,13.6108398 L20.628418,13.6108398 L20.628418,8.01220703 C20.6147461,6.93212891 20.3122559,6.11010742 19.7209473,5.54614258 C19.1296387,4.98217773 18.2666016,4.70019531 17.1318359,4.70019531 C16.4345703,4.70019531 15.8022461,4.84716797 15.2348633,5.14111328 C14.6674805,5.43505859 14.2163086,5.84008789 13.8813477,6.35620117 C13.5463867,6.87231445 13.3789062,7.4140625 13.3789062,7.98144531 L13.3789062,7.98144531 L15.1938477,7.98144531 C15.1938477,7.48242188 15.3647461,7.07055664 15.706543,6.74584961 C16.0483398,6.42114258 16.4926758,6.25878906 17.0395508,6.25878906 C17.6411133,6.25878906 18.0888672,6.39892578 18.3828125,6.67919922 C18.6767578,6.95947266 18.8237305,7.43115234 18.8237305,8.09423828 L18.8237305,8.09423828 L18.8237305,9.2734375 L17.4907227,9.2734375 C16.1577148,9.28710938 15.1083984,9.62548828 14.3427734,10.2885742 C13.5771484,10.9516602 13.1943359,11.847168 13.1943359,12.9750977 C13.1943359,14.0004883 13.4763184,14.795166 14.0402832,15.3591309 C14.604248,15.9230957 15.3886719,16.2050781 16.3935547,16.2050781 Z M16.6704102,14.5541992 C16.0688477,14.5541992 15.6416016,14.4123535 15.3886719,14.1286621 C15.1357422,13.8449707 15.0092773,13.3886719 15.0092773,12.7597656 C15.0092773,12.0898438 15.2587891,11.5686035 15.7578125,11.1960449 C16.2568359,10.8234863 16.9370117,10.6303711 17.7983398,10.6166992 L17.7983398,10.6166992 L18.8237305,10.6166992 L18.8237305,13.262207 C18.6391602,13.6313477 18.3452148,13.9389648 17.9418945,14.1850586 C17.5385742,14.4311523 17.1147461,14.5541992 16.6704102,14.5541992 Z M28.793457,16.2050781 C29.8256836,16.2050781 30.6989746,15.8547363 31.4133301,15.1540527 C32.1276855,14.4533691 32.5053711,13.5698242 32.5463867,12.503418 L32.5463867,12.503418 L30.8339844,12.503418 C30.7998047,13.1938477 30.6015625,13.7253418 30.2392578,14.0979004 C29.8769531,14.470459 29.3950195,14.6567383 28.793457,14.6567383 C27.9594727,14.6567383 27.3493652,14.3867188 26.9631348,13.8466797 C26.5769043,13.3066406 26.3837891,12.3837891 26.3837891,11.078125 L26.3837891,11.078125 L26.3837891,9.66308594 C26.3974609,8.453125 26.5991211,7.58325195 26.9887695,7.0534668 C27.378418,6.52368164 27.9765625,6.25878906 28.7832031,6.25878906 C29.4052734,6.25878906 29.892334,6.46386719 30.2443848,6.87402344 C30.5964355,7.28417969 30.7929688,7.89941406 30.8339844,8.71972656 L30.8339844,8.71972656 L32.5463867,8.71972656 C32.5053711,7.47558594 32.1516113,6.49462891 31.4851074,5.77685547 C30.8186035,5.05908203 29.9179688,4.70019531 28.7832031,4.70019531 C27.4091797,4.70019531 26.3632812,5.13598633 25.6455078,6.00756836 C24.9277344,6.87915039 24.5688477,8.15234375 24.5688477,9.82714844 L24.5688477,9.82714844 L24.5688477,11.0473633 C24.5688477,12.7563477 24.9294434,14.0432129 25.6506348,14.907959 C26.3718262,15.7727051 27.4194336,16.2050781 28.793457,16.2050781 Z M37.2045898,3.0390625 C37.5532227,3.0390625 37.8129883,2.93652344 37.9838867,2.73144531 C38.1547852,2.52636719 38.2402344,2.27001953 38.2402344,1.96240234 C38.2402344,1.66162109 38.1530762,1.40356445 37.9787598,1.18823242 C37.8044434,0.972900391 37.5463867,0.865234375 37.2045898,0.865234375 C36.862793,0.865234375 36.6064453,0.971191406 36.4355469,1.18310547 C36.2646484,1.39501953 36.1791992,1.65478516 36.1791992,1.96240234 C36.1791992,2.27001953 36.2646484,2.52636719 36.4355469,2.73144531 C36.6064453,2.93652344 36.862793,3.0390625 37.2045898,3.0390625 Z M38.0966797,16 L38.0966797,4.90527344 L36.2817383,4.90527344 L36.2817383,16 L38.0966797,16 Z M44.7749023,16 L44.7749023,6.37158203 L46.5693359,6.37158203 L46.5693359,4.90527344 L44.7749023,4.90527344 L44.7749023,3.94140625 C44.7749023,3.203125 44.9133301,2.65283203 45.1901855,2.29052734 C45.467041,1.92822266 45.9472656,1.74707031 46.6308594,1.74707031 C47.3076172,1.74707031 47.9775391,1.91796875 48.640625,2.25976562 L48.640625,2.25976562 L48.9482422,0.66015625 C48.5175781,0.482421875 48.1074219,0.333740234 47.7177734,0.214111328 C47.328125,0.0944824219 46.9179688,0.0346679688 46.4873047,0.0346679688 C45.3798828,0.0346679688 44.5168457,0.373046875 43.8981934,1.04980469 C43.279541,1.7265625 42.9633789,2.66992188 42.949707,3.87988281 L42.949707,3.87988281 L42.949707,4.90527344 L41.5039062,4.90527344 L41.5039062,6.37158203 L42.949707,6.37158203 L42.949707,16 L44.7749023,16 Z M49.8300781,16 L49.8300781,4.90527344 L48.0048828,4.90527344 L48.0048828,16 L49.8300781,16 Z M58.0874023,16.2050781 C59.1196289,16.2050781 59.9929199,15.8547363 60.7072754,15.1540527 C61.4216309,14.4533691 61.7993164,13.5698242 61.840332,12.503418 L61.840332,12.503418 L60.1279297,12.503418 C60.09375,13.1938477 59.8955078,13.7253418 59.5332031,14.0979004 C59.1708984,14.470459 58.6889648,14.6567383 58.0874023,14.6567383 C57.253418,14.6567383 56.6433105,14.3867188 56.2570801,13.8466797 C55.8708496,13.3066406 55.6777344,12.3837891 55.6777344,11.078125 L55.6777344,11.078125 L55.6777344,9.66308594 C55.6914062,8.453125 55.8930664,7.58325195 56.2827148,7.0534668 C56.6723633,6.52368164 57.2705078,6.25878906 58.0771484,6.25878906 C58.6992188,6.25878906 59.1862793,6.46386719 59.5383301,6.87402344 C59.8903809,7.28417969 60.0869141,7.89941406 60.1279297,8.71972656 L60.1279297,8.71972656 L61.840332,8.71972656 C61.7993164,7.47558594 61.4455566,6.49462891 60.7790527,5.77685547 C60.1125488,5.05908203 59.2119141,4.70019531 58.0771484,4.70019531 C56.703125,4.70019531 55.6572266,5.13598633 54.9394531,6.00756836 C54.2216797,6.87915039 53.862793,8.15234375 53.862793,9.82714844 L53.862793,9.82714844 L53.862793,11.0473633 C53.862793,12.7563477 54.2233887,14.0432129 54.9445801,14.907959 C55.6657715,15.7727051 56.7133789,16.2050781 58.0874023,16.2050781 Z M67.0112305,16 L67.0112305,9.48876953 L66.9086914,3.08007812 L71.4614258,16 L72.3637695,16 L76.9370117,3.01855469 L76.8344727,9.52978516 L76.8344727,16 L78.003418,16 L78.003418,1.0703125 L76.4550781,1.0703125 L71.9125977,14.2055664 L67.390625,1.0703125 L65.8422852,1.0703125 L65.8422852,16 L67.0112305,16 Z M85.3891602,16.2050781 C86.0180664,16.2050781 86.6008301,16.0529785 87.1374512,15.7487793 C87.6740723,15.4445801 88.1132812,15.015625 88.4550781,14.4619141 C88.4892578,15.1318359 88.5576172,15.6445312 88.6601562,16 L88.6601562,16 L89.8701172,16 L89.8701172,15.8769531 C89.671875,15.3369141 89.5727539,14.5234375 89.5727539,13.4365234 L89.5727539,13.4365234 L89.5727539,7.99169922 C89.5727539,6.91845703 89.2856445,6.1015625 88.7114258,5.54101562 C88.137207,4.98046875 87.2929688,4.70019531 86.1787109,4.70019531 C85.1464844,4.70019531 84.2885742,5.01635742 83.6049805,5.64868164 C82.9213867,6.28100586 82.5795898,7.05175781 82.5795898,7.9609375 L82.5795898,7.9609375 L83.7177734,7.97119141 C83.7177734,7.32177734 83.9433594,6.79199219 84.3945312,6.38183594 C84.8457031,5.97167969 85.4233398,5.76660156 86.1274414,5.76660156 C86.8862305,5.76660156 87.4621582,5.93920898 87.8552246,6.28442383 C88.248291,6.62963867 88.4448242,7.19873047 88.4448242,7.99169922 L88.4448242,7.99169922 L88.4448242,9.54003906 L86.5375977,9.54003906 C85.2319336,9.546875 84.208252,9.86816406 83.4665527,10.5039062 C82.7248535,11.1396484 82.3540039,12.0009766 82.3540039,13.0878906 C82.3540039,14.0859375 82.6206055,14.8549805 83.1538086,15.3950195 C83.6870117,15.9350586 84.4321289,16.2050781 85.3891602,16.2050781 Z M85.5327148,15.1079102 C84.1791992,15.1079102 83.5024414,14.4038086 83.5024414,12.9956055 C83.5024414,12.2368164 83.765625,11.6335449 84.2919922,11.185791 C84.8183594,10.7380371 85.6010742,10.5073242 86.6401367,10.4936523 L86.6401367,10.4936523 L88.4448242,10.4936523 L88.4448242,13.1904297 C88.2055664,13.7714844 87.8278809,14.2363281 87.3117676,14.5849609 C86.7956543,14.9335938 86.2026367,15.1079102 85.5327148,15.1079102 Z M95.3076172,20.265625 L95.3076172,14.6669922 C95.9433594,15.6923828 96.9038086,16.2050781 98.1889648,16.2050781 C99.371582,16.2050781 100.260254,15.7607422 100.85498,14.8720703 C101.449707,13.9833984 101.74707,12.6845703 101.74707,10.9755859 L101.74707,10.9755859 L101.74707,9.85791016 C101.740234,8.11474609 101.439453,6.81933594 100.844727,5.97167969 C100.25,5.12402344 99.3544922,4.70019531 98.1582031,4.70019531 C96.8935547,4.70019531 95.9331055,5.27441406 95.2768555,6.42285156 L95.2768555,6.42285156 L95.2255859,4.90527344 L94.1796875,4.90527344 L94.1796875,20.265625 L95.3076172,20.265625 Z M97.9018555,15.1489258 C96.6850586,15.1489258 95.8203125,14.5917969 95.3076172,13.4775391 L95.3076172,13.4775391 L95.3076172,7.6328125 C95.8203125,6.40917969 96.6782227,5.79736328 97.8813477,5.79736328 C98.8178711,5.79736328 99.5065918,6.13232422 99.9475098,6.80224609 C100.388428,7.47216797 100.608887,8.51806641 100.608887,9.93994141 L100.608887,9.93994141 L100.608887,11.0473633 C100.602051,12.4418945 100.378174,13.4741211 99.9372559,14.144043 C99.4963379,14.8139648 98.8178711,15.1489258 97.9018555,15.1489258 Z" id="PacifcMap" fill="#FFFFFF" fill-rule="nonzero"></path>
    </g>
</svg>